<?xml version="1.0" encoding="utf-8"?>
<!-- Generator: Adobe Illustrator 22.0.1, SVG Export Plug-In . SVG Version: 6.00 Build 0)  -->
<svg version="1.1" id="Calque_1" xmlns="http://www.w3.org/2000/svg" xmlns:xlink="http://www.w3.org/1999/xlink" x="0px" y="0px"
	 viewBox="0 0 365 52" style="enable-background:new 0 0 365 52;" xml:space="preserve">
<style type="text/css">
	.st0{fill:#730956;}
	.st1{fill:#80929D;}
	.st2{fill:#526A77;}
	.st3{fill:#748793;}
</style>
<g>
	<g>
		<g>
			<g>
				<path class="st0" d="M335.4,1c1.1,0,1.8,0.9,1.5,1.9l-13,46.3c-0.3,1.1-1.4,1.9-2.5,1.9h-4.4c-1.1,0-1.8-0.9-1.5-1.9l12.9-46.3
					c0.3-1.1,1.4-1.9,2.5-1.9H335.4z"/>
			</g>
		</g>
	</g>
	<g>
		<g>
			<path class="st1" d="M24.9,0.9C23,0.8,0.8,19.7,0.8,19.7v12.8c0,0,23.2-17.4,24.1-18.7C26.8,11.1,27.1,1,24.9,0.9z"/>
			<path class="st2" d="M24.9,51.2C23,51.3,0.8,32.5,0.8,32.5V19.7c0,0,23.2,17.4,24.1,18.7C26.8,41.1,27.1,51.2,24.9,51.2z"/>
		</g>
	</g>
	<g>
		<g>
			<path class="st1" d="M340.1,0.9c1.9-0.1,24.1,18.7,24.1,18.7v12.8c0,0-23.2-17.4-24.1-18.7C338.2,11.1,337.9,1,340.1,0.9z"/>
			<path class="st2" d="M340.1,51.2c1.9,0.1,24.1-18.7,24.1-18.7V19.7c0,0-23.2,17.4-24.1,18.7C338.2,41.1,337.9,51.2,340.1,51.2z"
				/>
		</g>
	</g>
	<g>
		<path class="st0" d="M136.5,19.4c0-0.4,0.1-0.8,0.2-1.3c0.2-0.5,0.4-0.8,0.7-1c0.5-0.3,1.7-0.7,3.5-1.2c1.8-0.5,4.2-0.7,7-0.7
			c3.3,0,5.6,0.6,6.9,1.7c1.3,1.2,2,3.2,2,6.1v3c0,1.8,0,3.7,0,5.7s0,3.8,0,5.6c0,1.8-0.1,3.5-0.1,5.1c0,1.6-0.1,3-0.2,4.2
			c-1.2,0.6-2.7,1.2-4.4,1.5c-1.7,0.4-3.7,0.5-5.8,0.5c-1.3,0-2.6-0.1-3.8-0.3c-1.2-0.2-2.3-0.7-3.2-1.4c-0.9-0.7-1.7-1.7-2.2-3
			c-0.6-1.3-0.9-3.1-0.9-5.4c0-2.2,0.2-4,0.7-5.4c0.4-1.4,1.1-2.5,1.8-3.3c0.8-0.8,1.6-1.3,2.6-1.6c1-0.3,2-0.4,3-0.4
			c0.5,0,1.2,0.1,2.2,0.2c0.9,0.1,1.7,0.4,2.4,0.8v-4.4c0-0.9-0.2-1.5-0.7-1.8c-0.5-0.4-1.2-0.5-2.3-0.5c-1.3,0-2.8,0.1-4.4,0.4
			c-1.6,0.3-3,0.6-4.1,1c-0.4-0.7-0.7-1.5-0.9-2.3C136.5,20.6,136.5,19.9,136.5,19.4z M149,33.9c-0.2-0.2-0.5-0.4-0.9-0.4
			c-0.4-0.1-0.7-0.1-1-0.1c-0.8,0-1.4,0.3-1.8,1c-0.4,0.7-0.6,2.1-0.6,4.1c0,1.5,0.2,2.7,0.5,3.3c0.3,0.7,0.9,1,1.8,1
			c0.3,0,0.7-0.1,1-0.2c0.4-0.1,0.6-0.3,0.9-0.5c0-0.3,0.1-0.8,0.1-1.5c0-0.7,0-1.4,0-2.2c0-0.8,0-1.6,0-2.4
			C149,35.3,149,34.6,149,33.9z"/>
		<path class="st0" d="M161.2,17.4c0.6-0.3,1.3-0.5,2.2-0.7c0.9-0.2,1.8-0.5,2.8-0.7c1-0.2,2-0.4,3.1-0.5c1-0.1,2-0.2,2.9-0.2
			c1.8,0,3.3,0.1,4.6,0.4c1.3,0.3,2.3,0.7,3.2,1.4c0.8,0.6,1.4,1.5,1.8,2.6c0.4,1.1,0.6,2.4,0.6,4v23.3c0,0.3,0,0.6-0.1,0.8
			c-0.1,0.2-0.4,0.3-1,0.4c-0.5,0.1-1.4,0.1-2.5,0.1c-1.1,0-2.7,0-4.6,0V25.8c0-1.7-0.1-2.8-0.4-3.4c-0.3-0.6-0.9-0.9-1.9-0.9
			c-1,0-1.9,0.3-2.7,0.8v24.6c0,0.3,0,0.6-0.1,0.8c-0.1,0.2-0.4,0.3-0.9,0.4c-0.5,0.1-1.3,0.1-2.4,0.1c-1.1,0-2.6,0-4.5,0V17.4z"/>
		<path class="st0" d="M200,3.9c0-0.8,0.1-1.4,0.3-1.8c0.2-0.4,0.6-0.7,1.2-0.9c0.6-0.2,1.4-0.3,2.4-0.4c1,0,2.4-0.1,4-0.1v46.1
			c-1.2,0.5-2.7,0.9-4.4,1.3c-1.7,0.4-3.7,0.6-6,0.6c-1.5,0-3-0.2-4.3-0.5s-2.6-1-3.7-2.1c-1.1-1.1-1.9-2.6-2.6-4.6
			c-0.6-2-1-4.7-1-8.2c0-3.3,0.2-6.1,0.7-8.4c0.5-2.3,1.2-4.2,2.1-5.6c0.9-1.4,1.9-2.5,3.1-3.2c1.2-0.7,2.5-1,3.8-1
			c0.9,0,1.8,0.1,2.5,0.3c0.7,0.2,1.3,0.5,1.7,0.8V3.9z M200,21.8c-0.4-0.2-0.9-0.3-1.5-0.3c-0.4,0-0.8,0.1-1.2,0.3
			c-0.4,0.2-0.8,0.6-1.1,1.4c-0.3,0.7-0.6,1.8-0.9,3.3c-0.2,1.5-0.4,3.6-0.4,6.2c0,1.9,0,3.5,0.1,4.8c0.1,1.2,0.2,2.2,0.5,3
			c0.2,0.8,0.5,1.3,0.8,1.6c0.3,0.3,0.7,0.5,1.2,0.5c0.9,0,1.7-0.2,2.3-0.6V21.8z"/>
	</g>
	<g>
		<path class="st3" d="M49.2,2.4c1.5,0,2.7,0.1,3.6,0.3c0.9,0.2,1.6,0.5,2,0.9c0.4,0.4,0.7,0.8,0.9,1.2C55.9,5.2,56,5.7,56,6.2
			c0,0.9-0.1,1.7-0.4,2.4c-0.2,0.7-0.5,1.4-0.8,1.9c-0.4-0.3-0.9-0.6-1.6-0.8c-0.6-0.2-1.3-0.3-2.1-0.3c-1,0-2,0.2-2.9,0.7
			c-0.9,0.5-1.8,1.4-2.5,2.7s-1.3,3-1.7,5.2c-0.4,2.1-0.6,5-0.6,8.5c0,2.8,0.1,5.1,0.3,6.8c0.2,1.7,0.5,3.2,1,4.3
			c0.4,1.1,1,1.9,1.7,2.4c0.7,0.5,1.6,0.7,2.6,0.7c2.3,0,4.2-0.3,5.5-1c0.3,0.6,0.5,1.2,0.7,2c0.2,0.8,0.3,1.5,0.3,2.3
			c0,1.5-0.8,2.7-2.3,3.5c-1.5,0.8-3.7,1.3-6.3,1.3c-2,0-3.7-0.3-5.2-0.9c-1.5-0.6-2.7-1.7-3.7-3.4c-1-1.6-1.7-3.9-2.2-6.7
			c-0.5-2.9-0.7-6.4-0.7-10.7c0-5.3,0.4-9.5,1.3-12.7c0.9-3.2,2-5.6,3.4-7.4c1.4-1.8,2.9-3,4.6-3.6C46,2.7,47.6,2.4,49.2,2.4z"/>
		<path class="st3" d="M57,32c0-5.8,1-10.1,3-12.7c2-2.6,4.9-4,8.7-4c1.9,0,3.5,0.2,4.9,0.7c1.4,0.5,2.5,1.4,3.4,2.6
			c0.9,1.2,1.6,2.9,2,5c0.4,2.1,0.7,4.8,0.7,8.1c0,3.1-0.2,5.7-0.7,7.9c-0.5,2.2-1.2,3.9-2.2,5.3c-1,1.4-2.2,2.3-3.7,3
			c-1.5,0.6-3.1,0.9-5,0.9c-1.9,0-3.6-0.2-5-0.6c-1.4-0.4-2.6-1.2-3.5-2.4c-0.9-1.2-1.6-2.9-2.1-5.1C57.2,38.5,57,35.6,57,32z
			 M65.7,31.9c0,2.5,0.1,4.5,0.2,6c0.1,1.4,0.3,2.5,0.5,3.3s0.5,1.2,0.9,1.4c0.4,0.2,0.7,0.3,1.2,0.3c0.3,0,0.7-0.1,1-0.3
			c0.3-0.2,0.6-0.7,0.9-1.4c0.2-0.8,0.4-1.8,0.6-3.3c0.2-1.4,0.2-3.4,0.2-5.9c0-2.3,0-4.2-0.1-5.5c-0.1-1.4-0.2-2.4-0.4-3.2
			c-0.2-0.7-0.5-1.2-0.8-1.4c-0.3-0.2-0.8-0.3-1.3-0.3c-0.4,0-0.7,0.1-1.1,0.4c-0.4,0.2-0.7,0.7-0.9,1.5C66.2,24,66,25,65.9,26.4
			C65.8,27.8,65.7,29.6,65.7,31.9z"/>
		<path class="st3" d="M96.3,3.9c0-0.8,0.1-1.4,0.3-1.8c0.2-0.4,0.6-0.7,1.2-0.9c0.6-0.2,1.4-0.3,2.4-0.4c1,0,2.4-0.1,4-0.1v46.1
			c-1.2,0.5-2.7,0.9-4.4,1.3c-1.7,0.4-3.7,0.6-6,0.6c-1.5,0-3-0.2-4.3-0.5c-1.4-0.3-2.6-1-3.7-2.1c-1.1-1.1-1.9-2.6-2.6-4.6
			c-0.6-2-1-4.7-1-8.2c0-3.3,0.2-6.1,0.7-8.4c0.5-2.3,1.2-4.2,2.1-5.6c0.9-1.4,1.9-2.5,3.1-3.2c1.2-0.7,2.5-1,3.8-1
			c0.9,0,1.8,0.1,2.5,0.3c0.7,0.2,1.3,0.5,1.7,0.8V3.9z M96.3,21.8c-0.4-0.2-0.9-0.3-1.5-0.3c-0.4,0-0.8,0.1-1.2,0.3
			c-0.4,0.2-0.8,0.6-1.1,1.4c-0.3,0.7-0.6,1.8-0.9,3.3c-0.2,1.5-0.4,3.6-0.4,6.2c0,1.9,0,3.5,0.1,4.8c0.1,1.2,0.2,2.2,0.5,3
			c0.2,0.8,0.5,1.3,0.8,1.6c0.3,0.3,0.7,0.5,1.2,0.5c0.9,0,1.7-0.2,2.3-0.6V21.8z"/>
		<path class="st3" d="M120.8,15.3c2.8,0,5.1,0.8,6.7,2.5c1.6,1.6,2.4,4.3,2.4,8.1c0,1.5-0.1,3.1-0.2,4.8c-0.1,1.7-0.4,3.1-0.8,4.4
			c-0.9,0.2-1.8,0.3-2.9,0.4c-1.1,0.1-2.2,0.2-3.3,0.3c-1.1,0.1-2.2,0.2-3.3,0.2c-1.1,0-2,0.1-2.9,0.1c0.1,2.1,0.5,3.6,1.1,4.5
			c0.6,0.9,1.8,1.4,3.5,1.4c1.3,0,2.5-0.2,3.8-0.5c1.3-0.3,2.5-0.8,3.7-1.3c0.2,0.6,0.4,1.4,0.5,2.4c0.1,0.9,0.1,1.8,0.1,2.5
			c0,0.6-0.3,1.2-0.8,1.7c-0.5,0.5-1.2,0.9-2.2,1.3c-0.9,0.3-2,0.6-3.2,0.8c-1.2,0.2-2.5,0.3-3.9,0.3c-1.6,0-3.1-0.2-4.4-0.6
			c-1.3-0.4-2.5-1.2-3.5-2.4c-1-1.1-1.7-2.7-2.3-4.7c-0.5-2-0.8-4.5-0.8-7.5c0-3.9,0.3-7.1,1-9.4c0.7-2.4,1.6-4.2,2.7-5.5
			c1.1-1.3,2.5-2.2,4-2.6C117.5,15.5,119.1,15.3,120.8,15.3z M119.7,21.5c-1.1,0-1.9,0.7-2.3,2.1c-0.5,1.4-0.8,3.6-0.9,6.6
			c1,0,2,0,3-0.1c1-0.1,1.7-0.2,2.3-0.5c0.1-0.4,0.2-0.9,0.3-1.6c0-0.7,0.1-1.3,0.1-1.8c0-1,0-1.9-0.1-2.5c-0.1-0.6-0.2-1.1-0.4-1.5
			c-0.2-0.3-0.4-0.6-0.7-0.7C120.5,21.6,120.1,21.5,119.7,21.5z"/>
	</g>
	<g>
		<path class="st3" d="M213.9,18c-0.1-0.5-0.2-0.9-0.1-1.2c0-0.3,0.3-0.5,0.9-0.6c0.5-0.1,1.4-0.2,2.7-0.2c1.2,0,3,0,5.2,0l1.3,9.3
			c0.2,1.4,0.4,3,0.5,4.7c0.2,1.8,0.3,3.5,0.5,5.1c0.2,1.8,0.3,3.7,0.4,5.6h0.1c0.1-1.9,0.2-3.8,0.4-5.6c0.1-1.6,0.2-3.3,0.4-5.1
			c0.2-1.8,0.3-3.4,0.5-4.7l1-7.9c0-0.3,0.1-0.6,0.2-0.8c0.1-0.2,0.4-0.3,1-0.4c0.5-0.1,1.3-0.1,2.4-0.2c1.1,0,2.7,0,4.7,0L229,48.1
			c-0.8,0.1-1.8,0.2-2.9,0.3c-1.1,0-2.1,0.1-2.8,0.1c-1,0-1.8-0.3-2.3-0.9c-0.5-0.6-0.8-1.4-1.1-2.3L213.9,18z"/>
		<path class="st3" d="M247,46.9c0,0.3,0,0.6-0.1,0.8c-0.1,0.2-0.4,0.3-0.9,0.4c-0.5,0.1-1.3,0.1-2.4,0.1c-1.1,0-2.7,0-4.6,0V19.1
			c0-0.8,0.1-1.4,0.4-1.8c0.2-0.4,0.6-0.7,1.2-0.9c0.6-0.2,1.4-0.3,2.4-0.4c1,0,2.4-0.1,4-0.1V46.9z M239.3,6.5c0-1.5,0.3-2.7,1-3.6
			c0.7-0.9,1.8-1.4,3.3-1.4c1.5,0,2.5,0.3,3,1c0.5,0.7,0.8,1.9,0.8,3.7c0,1.8-0.4,3.1-1.1,4.1c-0.7,1-1.8,1.5-3.2,1.5
			c-1.2,0-2.1-0.4-2.8-1.1C239.6,9.9,239.3,8.5,239.3,6.5z"/>
		<path class="st3" d="M263.4,15.3c2.8,0,5.1,0.8,6.7,2.5c1.6,1.6,2.4,4.3,2.4,8.1c0,1.5-0.1,3.1-0.2,4.8c-0.1,1.7-0.4,3.1-0.8,4.4
			c-0.9,0.2-1.8,0.3-2.9,0.4c-1.1,0.1-2.2,0.2-3.3,0.3c-1.1,0.1-2.2,0.2-3.3,0.2c-1.1,0-2,0.1-2.9,0.1c0.1,2.1,0.5,3.6,1.1,4.5
			c0.6,0.9,1.8,1.4,3.5,1.4c1.3,0,2.5-0.2,3.8-0.5c1.3-0.3,2.5-0.8,3.7-1.3c0.2,0.6,0.4,1.4,0.5,2.4c0.1,0.9,0.1,1.8,0.1,2.5
			c0,0.6-0.3,1.2-0.8,1.7c-0.5,0.5-1.2,0.9-2.2,1.3c-0.9,0.3-2,0.6-3.2,0.8c-1.2,0.2-2.5,0.3-3.9,0.3c-1.6,0-3.1-0.2-4.4-0.6
			c-1.3-0.4-2.5-1.2-3.5-2.4c-1-1.1-1.7-2.7-2.3-4.7c-0.5-2-0.8-4.5-0.8-7.5c0-3.9,0.3-7.1,1-9.4c0.7-2.4,1.6-4.2,2.7-5.5
			c1.1-1.3,2.5-2.2,4-2.6C260.2,15.5,261.8,15.3,263.4,15.3z M262.4,21.5c-1.1,0-1.9,0.7-2.3,2.1c-0.5,1.4-0.8,3.6-0.9,6.6
			c1,0,2,0,3-0.1c1-0.1,1.7-0.2,2.3-0.5c0.1-0.4,0.2-0.9,0.3-1.6c0-0.7,0.1-1.3,0.1-1.8c0-1,0-1.9-0.1-2.5c-0.1-0.6-0.2-1.1-0.4-1.5
			c-0.2-0.3-0.4-0.6-0.7-0.7C263.1,21.6,262.8,21.5,262.4,21.5z"/>
		<path class="st3" d="M274,17.3c0-0.3,0-0.6,0.1-0.8c0.1-0.2,0.5-0.3,1.1-0.4c0.6-0.1,1.5-0.1,2.7-0.2c1.2,0,2.8,0,4.9,0l1.3,9
			c0.2,1.6,0.4,3.3,0.6,5.1c0.2,1.8,0.3,3.4,0.5,4.9c0.2,1.8,0.3,3.5,0.4,5.4h0.6c0-0.5,0.1-1.1,0.1-1.8c0-0.7,0.1-1.5,0.1-2.4
			c0.1-0.9,0.1-1.7,0.2-2.6c0.1-0.9,0.2-1.7,0.3-2.5l1.9-13c0.1-0.6,0.3-1,0.5-1.2c0.3-0.2,0.9-0.3,2-0.3h5.2l2.4,14.4
			c0.1,0.7,0.2,1.6,0.3,2.7c0.1,1.1,0.2,2.1,0.3,3.1c0.1,1.2,0.2,2.4,0.2,3.6h0.6c0-1.1,0.1-2.3,0.2-3.7c0.1-1.3,0.2-2.7,0.3-4
			c0.1-1.4,0.2-2.7,0.4-4c0.1-1.3,0.3-2.5,0.4-3.6l1.1-7.6c0-0.3,0.1-0.6,0.3-0.8c0.1-0.2,0.5-0.3,1-0.4c0.5-0.1,1.2-0.1,2.2-0.2
			c1,0,2.4,0,4.2,0c-1.2,6-2.3,11.4-3.3,16.1c-0.4,2-0.9,4-1.3,5.9c-0.4,1.9-0.8,3.7-1.2,5.2c-0.4,1.5-0.7,2.7-0.9,3.6
			c-0.2,0.9-0.4,1.4-0.4,1.4c-0.3,0.1-0.7,0.1-1.2,0.2c-0.4,0-1,0.1-1.6,0.1c-0.6,0-1.4,0-2.4,0c-0.8,0-1.6-0.2-2.4-0.7
			c-0.8-0.5-1.4-1.3-1.6-2.5l-0.7-4.3c-0.2-1.2-0.4-2.7-0.6-4.4c-0.1-1.7-0.3-3.4-0.4-5c-0.1,1.7-0.2,3.4-0.4,5
			c-0.2,1.7-0.4,3.1-0.6,4.4l-1.3,7.2c-0.8,0.1-1.6,0.1-2.4,0.2c-0.7,0-1.4,0.1-2.2,0.1c-0.8,0-1.6,0-2.3,0c-0.9,0-1.7-0.3-2.2-0.9
			c-0.5-0.6-0.9-1.4-1.1-2.2c-0.2-0.9-0.5-2.1-0.8-3.4c-0.3-1.3-0.6-2.7-1-4.2c-0.4-1.5-0.7-3.1-1-4.6c-0.3-1.6-0.7-3.1-1-4.6
			C275.6,24.9,274.8,21.1,274,17.3z"/>
	</g>
</g>
</svg>
